<svg xmlns="http://www.w3.org/2000/svg" xmlns:xlink="http://www.w3.org/1999/xlink" viewBox="0 0 412 367"><defs><path id="b" d="M.09 70.284h30.084l-2.028 30.253a4.493 4.493 0 0 1-4.483 4.193H6.602a4.493 4.493 0 0 1-4.483-4.193L.09 70.284z"></path><path id="d" d="M3.7 70.284h19.77l-1.752 30.213a4.493 4.493 0 0 1-4.485 4.233H9.937a4.493 4.493 0 0 1-4.486-4.233L3.7 70.284z"></path><path id="f" d="M126.837 234.683c55.753.79 110.398-11.671 120.706-78.906C257.85 88.542 218.733 6.723 152.388 6.444 86.045 6.164 9.398 81.248 6.346 147.882c-1.249 27.27 4.374 53.869 20.397 68.315 22.095 19.92 62.49 17.953 100.094 18.486z"></path><path id="i" d="M17.895 1.78C7.647 10.245 1.987 15.31.915 16.97-.693 19.46-.33 22.829 4.07 23.193c2.137.176 7.588-2.071 16.353-6.744 2.177-1.16 5.904-3.239 11.18-6.234.93-.766 1.162-1.878.697-3.336A402.588 402.588 0 0 0 30.086.236C23.687 5.11 19.6 7.548 17.82 7.548s-1.754-1.923.075-5.769z"></path><path id="k" d="M97.322 8.131c-.42 11.158-6.32 16.736-17.701 16.736H22.816v74.159H8.32l-7.302-82.43C.334 8.896 6.025 2.099 13.727 1.417a14 14 0 0 1 .876-.05l46.78-1.2L95.75 4.905l1.57 3.227z"></path><path id="m" d="M21.07 1.78C8.822 12.046 2.162 18.011 1.09 19.671c-1.607 2.49-1.246 5.859 3.155 6.223 2.137.177 10.759-3.328 19.524-8 2.177-1.161 5.846-3.721 11.007-7.68.93-.766 1.163-1.878.698-3.336A402.588 402.588 0 0 0 33.26.236C26.862 5.11 22.773 7.548 20.994 7.548c-1.778 0-1.753-1.923.075-5.769z"></path><path id="n" d="M97.322 8.131c-.42 14.682-6.32 22.022-17.701 22.022-11.382 0-30.317-1.762-56.805-5.286v74.159H8.32l-7.302-82.43C.334 8.896 6.025 2.099 13.727 1.417a14 14 0 0 1 .876-.05l46.78-1.2L95.75 4.905l1.57 3.227z"></path><path id="p" d="m26.865.327 13.618.445c6.472.21 11.609 5.518 11.609 11.993v10.953c-1.149 12.216-1.776 21.116-1.88 26.701-.192 10.179-.192 22.007 0 35.484L5.966 68.595C7.111 55.227 7.749 47.11 7.882 44.246c.133-2.864.2-10.201.2-22.011H.244L.41 8.068a7 7 0 0 1 7-6.918h10.147l9.308-.823z"></path><path id="r" d="m7.417.503 3.471 10.565-10.616 8.56.835-15.91z"></path><path id="t" d="M9.63 20.257c-.132 1.001-.199 3.033-.199 6.096 0 4.595-.098 5.502.2 9.586.297 4.085.388 8.067 3.554 9.19 3.166 1.123 8.655-1.221 11.111-3.023 1.637-1.201 3.47-3.502 5.499-6.902 2.407-.202 4.055-.942 4.943-2.22 1.331-1.917 1.152-4.598-.837-5.37-.706-.273-5.392 4.77-6.564 4.225-1.423-.662-1.564-4.522-.423-11.582H9.63z"></path><linearGradient id="e" x1="32.208%" x2="69.006%" y1="106.597%" y2="-1.479%"><stop offset="0%" stop-color="#A2F8E4"></stop><stop offset="100%" stop-color="#4BC39D"></stop></linearGradient><linearGradient id="h" x1="0%" x2="164.025%" y1="6.411%" y2="139.746%"><stop offset="0%" stop-color="#BE71F1"></stop><stop offset="100%" stop-color="#151B4E"></stop></linearGradient><filter id="a" width="139.9%" height="134.8%" x="-10%" y="-8.7%" filterUnits="objectBoundingBox"><feOffset dx="6" dy="6" in="SourceAlpha" result="shadowOffsetOuter1"></feOffset><feColorMatrix in="shadowOffsetOuter1" values="0 0 0 0 0.62202381 0 0 0 0 0.352968569 0 0 0 0 0.381795916 0 0 0 0.0320425725 0"></feColorMatrix></filter><filter id="c" width="160.7%" height="134.8%" x="-15.2%" y="-8.7%" filterUnits="objectBoundingBox"><feOffset dx="6" dy="6" in="SourceAlpha" result="shadowOffsetOuter1"></feOffset><feColorMatrix in="shadowOffsetOuter1" values="0 0 0 0 0.62202381 0 0 0 0 0.352968569 0 0 0 0 0.381795916 0 0 0 0.0320425725 0"></feColorMatrix></filter></defs><g fill="none" fill-rule="evenodd"><path fill="#FFF" d="M54 173h154a4 4 0 0 1 4 4v126a4 4 0 0 1-4 4H54a4 4 0 0 1-4-4V177a4 4 0 0 1 4-4z"></path><ellipse cx="68" cy="307" fill="#514A9D" opacity="0.1" rx="68" ry="6"></ellipse><ellipse cx="146.5" cy="343" fill="#514A9D" opacity="0.1" rx="52.5" ry="9"></ellipse><ellipse cx="312" cy="338" fill="#514A9D" opacity="0.3" rx="100" ry="6"></ellipse><g opacity="0.9" transform="translate(345 232)"><use fill="#000" filter="url(#a)" xlink:href="#b"></use><use fill="#5561C9" xlink:href="#b"></use></g><g transform="translate(345 232)"><use fill="#000" filter="url(#c)" xlink:href="#d"></use><use fill="#514A9D" xlink:href="#d"></use></g><path fill="#FFF" d="M371.002 267.719h-2.887v-32.301a3.378 3.378 0 1 0-6.756 0v32.3h-.056a3.582 3.582 0 1 0 0 7.165h.056v27.401h6.756v-27.401h6.235a3.653 3.653 0 0 0 .117 0 3.465 3.465 0 0 0 3.464-3.465V256.26a3.465 3.465 0 0 0-6.929 0v11.46z"></path><path fill="#24C6DC" d="M353.466 274.883a3.378 3.378 0 0 1 3.378 3.378v24.023h-6.756v-24.023a3.378 3.378 0 0 1 3.378-3.378zM53 173h42a4 4 0 0 1 4 4v126a4 4 0 0 1-4 4H53a4 4 0 0 1-4-4V177a4 4 0 0 1 4-4z"></path><path fill="#000000" d="M59 296h65v2H59z"></path><path fill="#FFF" d="M59 181h65v2H59z" opacity="0.4"></path><g transform="translate(71 139)"><path stroke="#33309E" stroke-linecap="round" stroke-width="4" d="M8.136 6.287v6.594M12.72 0v8.892m4.578-.512v2.409" opacity="0.2"></path><ellipse cx="25.184" cy="21.708" stroke="#626DCD" stroke-width="5" rx="3.816" ry="3.923"></ellipse><path fill="#626DCD" d="M21.124 17.262h1.77c.563 0 1.018.468 1.018 1.046v7.584c0 4.478-3.53 8.108-7.886 8.108H10.94c-4.356 0-7.886-3.63-7.886-8.108v-7.584c0-.578.455-1.046 1.017-1.046h4.351"></path><path fill="#514A9D" d="M17.157 17.262h1.382c.439 0 .794.468.794 1.046v7.584c0 4.478-2.755 8.108-6.155 8.108h-3.97c-3.4 0-6.155-3.63-6.155-8.108v-7.584c0-.578.355-1.046.794-1.046h3.396"></path><path stroke="#626DCD" stroke-linecap="round" stroke-width="3" d="M7.118 20.41v6.594"></path><path stroke="#514A9D" stroke-linecap="round" stroke-width="3" d="M.114 33.215h27.011"></path></g><path stroke="#514A9D" stroke-width="3" d="M268 216V19.123A2.12 2.12 0 0 1 270.117 17h113.766A2.12 2.12 0 0 1 386 19.123V216" opacity="0.7"></path><path fill="#FFF" d="M283.2 30h87.6a3.2 3.2 0 0 1 3.2 3.2v168.6a3.2 3.2 0 0 1-3.2 3.2h-87.6a3.2 3.2 0 0 1-3.2-3.2V33.2a3.2 3.2 0 0 1 3.2-3.2z"></path><path fill="url(#e)" d="M266.346 153.81c7.492-2.075 12.727-4.138 15.706-6.187 10.376-7.138 8.825-14.673 22.498-16.22 6.31-.714 14.373 1.61 18.614 0 7.349-2.79 9.038-10.093 12.085-12.936 4.56-4.255 12.143-4.594 22.751-1.015V198.8a3.2 3.2 0 0 1-3.2 3.2h-87.6a3.2 3.2 0 0 1-3.2-3.2v-41.906a3.2 3.2 0 0 1 2.346-3.084z" opacity="0.5"></path><path fill="#514A9D" d="M371.654 122.81c-7.492-2.075-12.727-4.138-15.706-6.187-10.376-7.138-8.825-14.673-22.498-16.22-6.31-.714-14.373 1.61-18.614 0-7.349-2.79-9.038-10.093-12.085-12.936-4.56-4.255-12.143-4.594-22.751-1.015V167.8a3.2 3.2 0 0 0 3.2 3.2h87.6a3.2 3.2 0 0 0 3.2-3.2v-41.906a3.2 3.2 0 0 0-2.346-3.084z"></path><path fill="#24C6DC" d="M282.346 156.81c7.492-2.075 12.727-4.138 15.706-6.187 10.376-7.138 8.825-14.673 22.498-16.22 6.31-.714 14.373 1.61 18.614 0 7.349-2.79 9.038-10.093 12.085-12.936 4.56-4.255 12.143-4.594 22.751-1.015V201.8a3.2 3.2 0 0 1-3.2 3.2h-87.6a3.2 3.2 0 0 1-3.2-3.2v-41.906a3.2 3.2 0 0 1 2.346-3.084z"></path><ellipse cx="326.5" cy="66" fill="#CDCDF9" opacity="0.572" rx="10.5" ry="10"></ellipse><g fill="#000000" opacity="0.8" transform="translate(172 71)"><circle cx="0.801" cy="0.793" r="1"></circle><circle cx="11.475" cy="0.793" r="1"></circle><circle cx="22.15" cy="0.793" r="1"></circle><circle cx="32.825" cy="0.793" r="1"></circle><circle cx="43.5" cy="0.793" r="1"></circle><circle cx="54.175" cy="0.793" r="1"></circle><circle cx="64.85" cy="0.793" r="1"></circle><circle cx="75.525" cy="0.793" r="1"></circle><circle cx="86.199" cy="0.793" r="1"></circle><circle cx="0.801" cy="11.362" r="1"></circle><circle cx="11.475" cy="11.362" r="1"></circle><circle cx="22.15" cy="11.362" r="1"></circle><circle cx="32.825" cy="11.362" r="1"></circle><circle cx="43.5" cy="11.362" r="1"></circle><circle cx="54.175" cy="11.362" r="1"></circle><circle cx="64.85" cy="11.362" r="1"></circle><circle cx="75.525" cy="11.362" r="1"></circle><circle cx="86.199" cy="11.362" r="1"></circle><circle cx="0.801" cy="21.931" r="1"></circle><circle cx="11.475" cy="21.931" r="1"></circle><circle cx="22.15" cy="21.931" r="1"></circle><circle cx="32.825" cy="21.931" r="1"></circle><circle cx="43.5" cy="21.931" r="1"></circle><circle cx="54.175" cy="21.931" r="1"></circle><circle cx="64.85" cy="21.931" r="1"></circle><circle cx="75.525" cy="21.931" r="1"></circle><circle cx="86.199" cy="21.931" r="1"></circle><circle cx="0.801" cy="32.5" r="1"></circle><circle cx="11.475" cy="32.5" r="1"></circle><circle cx="22.15" cy="32.5" r="1"></circle><circle cx="32.825" cy="32.5" r="1"></circle><circle cx="43.5" cy="32.5" r="1"></circle><circle cx="54.175" cy="32.5" r="1"></circle><circle cx="64.85" cy="32.5" r="1"></circle><circle cx="75.525" cy="32.5" r="1"></circle><circle cx="86.199" cy="32.5" r="1"></circle><circle cx="0.801" cy="43.069" r="1"></circle><circle cx="11.475" cy="43.069" r="1"></circle><circle cx="22.15" cy="43.069" r="1"></circle><circle cx="32.825" cy="43.069" r="1"></circle><circle cx="43.5" cy="43.069" r="1"></circle><circle cx="54.175" cy="43.069" r="1"></circle><circle cx="64.85" cy="43.069" r="1"></circle><circle cx="75.525" cy="43.069" r="1"></circle><circle cx="86.199" cy="43.069" r="1"></circle><circle cx="0.801" cy="53.638" r="1"></circle><circle cx="11.475" cy="53.638" r="1"></circle><circle cx="22.15" cy="53.638" r="1"></circle><circle cx="32.825" cy="53.638" r="1"></circle><circle cx="43.5" cy="53.638" r="1"></circle><circle cx="54.175" cy="53.638" r="1"></circle><circle cx="64.85" cy="53.638" r="1"></circle><circle cx="75.525" cy="53.638" r="1"></circle><circle cx="86.199" cy="53.638" r="1"></circle><circle cx="0.801" cy="64.207" r="1"></circle><circle cx="11.475" cy="64.207" r="1"></circle><circle cx="22.15" cy="64.207" r="1"></circle><circle cx="32.825" cy="64.207" r="1"></circle><circle cx="43.5" cy="64.207" r="1"></circle><circle cx="54.175" cy="64.207" r="1"></circle><circle cx="64.85" cy="64.207" r="1"></circle><circle cx="75.525" cy="64.207" r="1"></circle><circle cx="86.199" cy="64.207" r="1"></circle></g><g transform="translate(85 107)"><mask id="g" fill="#fff"><use xlink:href="#f"></use></mask><use fill="#514A9D" transform="rotate(3 127.68 120.58)" xlink:href="#f"></use><path fill="#CDCDF9" d="M100.33 218.758c55.753.79 110.397-11.671 120.705-78.906 10.308-67.235-28.81-149.054-95.154-149.333-66.343-.28-142.99 74.804-146.042 141.438-1.25 27.27 4.374 53.868 20.397 68.315 22.094 19.92 62.49 17.953 100.094 18.486z" mask="url(#g)" transform="rotate(3 101.172 104.655)"></path><path stroke="#FFF" stroke-dasharray="10" stroke-width="3" d="M92.908 210.796c55.753.79 110.397-11.672 120.705-78.907 10.308-67.235-28.81-149.054-95.154-149.333-66.343-.28-142.99 74.805-146.042 141.439-1.25 27.27 4.374 53.868 20.397 68.314 22.094 19.92 62.49 17.954 100.094 18.487z" mask="url(#g)" opacity="0.4" transform="rotate(3 93.75 96.693)"></path><ellipse cx="162.031" cy="176.283" fill="#FFF" mask="url(#g)" opacity="0.2" rx="5.946" ry="5.959"></ellipse><path stroke="#77C" stroke-linecap="round" stroke-width="3" d="M133.727 138.804c17.804-.097 31.193 1.71 40.168 5.42" mask="url(#g)"></path><path stroke="#77C" stroke-linecap="round" stroke-width="3" d="M121.53 140.385c17.747.336 31.14 2.15 40.176 5.44" mask="url(#g)" transform="rotate(20 141.618 143.105)"></path><ellipse cx="175.992" cy="167.073" fill="#FFF" mask="url(#g)" opacity="0.2" rx="3.243" ry="3.25"></ellipse><path fill="#514A9D" d="m82.406 232.395-35.611-3.324V171.68l-3.853-38.412L96.879 121.7l3.246 16.574a27.812 27.812 0 0 0-17.719 25.916v68.205zM144.933 6.014l9.954.317c-2.82 5.982-4.446 9.403-4.875 10.26-3.052 6.105-4.607 9.525 0 11.417 4.608 1.893 13.394 2.35 18.793 36.097 5.4 33.748-.522 66.073-12.97 71.353-8.299 3.52-21.747 4.232-40.343 2.136l28.417-49.286-19.629-38.922-1.537-14.765 6.666-16.092 7.156-9.755 8.368-2.76z" mask="url(#g)" opacity="0.2"></path></g><g transform="translate(21.883 61)"><ellipse cx="80.403" cy="5.008" fill="url(#h)" opacity="0.3" rx="4.676" ry="4.675"></ellipse><ellipse cx="22.182" cy="29.552" fill="#FFF" opacity="0.2" rx="21.277" ry="21.272"></ellipse></g><path fill="#ED9261" d="m189.496 183.369-1.218 23.294a6.188 6.188 0 0 1-6.18 5.865h-8.762c-5.42 0-11.446-2.422-13.87-2.46-1.617-.026-3.607.556-5.971 1.746l4.277 8.451 4.023-2.938c10.794 4.993 18.312 7.737 22.555 8.229 6.363.739 12.174 1.51 14.352-2.755 1.452-2.844 3.158-15.668 5.117-38.472l-14.323-.96zm-64.06 149.654-.022 11.93-17.812 10.97c-2.384 1.694-2.19 3.036.58 4.03 2.771.995 12.712-.749 29.823-5.229l-.495-9.766-.005-12.153c-.25.72-1.339 1.287-3.267 1.702-1.928.413-4.861-.081-8.802-1.484z"></path><g transform="rotate(15 -1232.116 581.586)"><mask id="j" fill="#fff"><use xlink:href="#i"></use></mask><use fill="#514A9D" xlink:href="#i"></use><ellipse cx="31.592" cy="10.091" fill="#FFD38C" mask="url(#j)" opacity="0.2" rx="3.707" ry="6.421"></ellipse></g><g transform="translate(116.149 237.652)"><mask id="l" fill="#fff"><use xlink:href="#k"></use></mask><use fill="#514A9D" xlink:href="#k"></use><ellipse cx="81.252" cy="35.227" fill="#F7ADA6" mask="url(#l)" opacity="0.4" rx="11.552" ry="7.346"></ellipse><ellipse cx="-1.965" cy="4.706" fill="#00129E" mask="url(#l)" rx="11.552" ry="7.346"></ellipse><path fill="#000000" d="m58.438 2.522 37.19 14.8c.544-2.128.914-3.746 1.108-4.857.195-1.11.362-2.55.5-4.32L58.439 2.522z" mask="url(#l)" opacity="0.2"></path></g><path fill="#F2AF87" d="m145.541 335.137-.022 11.931-17.812 10.97c-2.384 1.694-2.19 3.036.58 4.03 2.771.994 12.712-.749 29.823-5.23l-.495-9.765-.005-12.153c-.25.72-1.339 1.287-3.267 1.701-1.928.413-4.861-.081-8.802-1.484z"></path><use fill="#514A9D" xlink:href="#m" transform="rotate(15 -1228.507 646.945)"></use><g transform="translate(136.784 237.652)"><mask id="o" fill="#fff"><use xlink:href="#n"></use></mask><use fill="#514A9D" xlink:href="#n"></use><ellipse cx="82.84" cy="33.641" fill="#514A9D" mask="url(#o)" opacity="0.4" rx="11.552" ry="7.346"></ellipse><ellipse cx="-0.961" cy="5.181" fill="#514A9D" mask="url(#o)" opacity="0.2" rx="11.552" ry="7.346"></ellipse><path fill="#514A9D" d="m59.51 1.997 35.17 21.197c1.176-4.633 1.862-7.504 2.056-8.614.195-1.11.362-2.551.5-4.32L59.51 1.996z" mask="url(#o)"></path></g><g transform="translate(188.66 170.338)"><mask id="q" fill="#fff"><use xlink:href="#p"></use></mask><use fill="#FFF" xlink:href="#p"></use><path stroke="#FFF" stroke-linecap="round" stroke-linejoin="round" d="m14.433 2.993-4.716 8.61a1 1 0 0 0 1.33 1.373l3.957-2.013 8.354 4.115a1 1 0 0 0 1.4-.609L28.828.944" mask="url(#q)" opacity="0.5"></path><path fill="#E6E6FF" d="M38.632 22.746c-3.665 6.494-5.047 12.115-4.144 16.862 1.354 7.12.608 12.713-1.07 14.687-1.118 1.317-2.096 8.594-2.934 21.833l19.79 7.841V23.754l-11.642-1.008z" mask="url(#q)"></path></g><path fill="#F2AF87" d="M227.368 193.182v31.194c-21.753-3.198-33.437-4.81-35.053-4.835-1.617-.026-5.294 1.585-11.032 4.835l1.46 12.228 9.572-8.714c29.596 9.94 45.12 13.487 46.573 10.643 1.452-2.843 2.044-17.742 1.775-44.697l-13.295-.654z"></path><g transform="rotate(-10 431.002 -235.37)"><path fill="#FFF" d="M33.114 20.392V71.7a1.305 1.305 0 0 1-1.954 1.132L1.376 55.764A2.61 2.61 0 0 1 .064 53.5V2.046A1.305 1.305 0 0 1 2.022.916L31.81 18.134a2.61 2.61 0 0 1 1.304 2.26z"></path><ellipse cx="10.811" cy="20.571" fill="#514A9D" rx="3.211" ry="4.229" transform="scale(1 -1) rotate(30 87.584 0)"></ellipse><path stroke="#514A9D" stroke-linecap="round" stroke-width="3.456" d="m7.546 32.883 12.47 7.267m-12.378.896 12.47 7.267M7.73 49.21l12.47 7.266" opacity="0.7"></path></g><g transform="rotate(10 -58.85 1235.966)"><path fill="#FFF" d="M25.755 15.846v39.861a1.015 1.015 0 0 1-1.519.881L1.071 43.328A2.03 2.03 0 0 1 .05 41.566V1.591A1.015 1.015 0 0 1 1.572.71L24.74 14.089a2.03 2.03 0 0 1 1.015 1.758z"></path><ellipse cx="7.734" cy="17.721" fill="#514A9D" rx="2.497" ry="3.286" transform="scale(1 -1) rotate(30 73.868 0)"></ellipse><path stroke="#514A9D" stroke-linecap="round" stroke-width="2.688" d="m6.005 30.495 9.699 5.646m-9.699 1.101 9.699 5.646" opacity="0.7"></path><path stroke="#A8A8E5" stroke-width="2" d="m26.002 15.256 9.196 41.598a1 1 0 0 1-1.502 1.066l-4.176-2.584" opacity="0.3"></path></g><g transform="translate(186.698 120.367)"><path fill="#000" d="M5.79 19.432C3.087 18.03 1.596 15.788.828 12.238.059 8.688 2.559-.547 9.778.158c1.89.185 3.605 2.554 6.66 3.223.943.207 6.562-.124 11.128 4.845 1.45 1.577 5.407 2.32 7.155 4.012 5.952 5.764 1.946 11.96.816 15.425a23.429 23.429 0 0 1-3.17 6.339c-1.22 2.273-2.363 3.866-3.426 4.776-1.064.911-3.044 1.268-5.94 1.07l-1.405-12.185-4.599-6.833c-5.667.002-9.403-.464-11.206-1.398z"></path><g transform="translate(17.353 39.379)"><mask id="s" fill="#fff"><use xlink:href="#r"></use></mask><use fill="#F2AF87" xlink:href="#r"></use><path fill="#ED9261" d="m8.354 1.04-9.18 14.023C.294 8.658.937 5.118 1.104 4.444c.305-1.233 2.721-2.367 7.25-3.404z" mask="url(#s)"></path></g><mask id="u" fill="#fff"><use xlink:href="#t"></use></mask><use fill="#F2AF87" xlink:href="#t"></use><path stroke="#B74019" stroke-linecap="round" stroke-width="2.08" d="M14.469 38.237c1.53.816 3.166.573 4.906-.728" mask="url(#u)"></path><path fill="#ED9261" d="M9.627 20.244h17.327l-.578 4.04H9.448c-.02-.888-.02-1.561 0-2.02.02-.457.08-1.13.18-2.02z" mask="url(#u)"></path></g><path fill="#ED9261" d="m227.38 193.077 13.36.716.097 5.326-13.347-.73z"></path><g transform="translate(105.399 .157)"><path fill="#514A9D" d="m39.28.007 9.384 9.57-3.051.632-7.731.197V4.497z"></path><path stroke="#514A9D" stroke-width="2" d="M45.304 49.773 9.87 56.042a1.056 1.056 0 0 1-1.225-.857L.413 8.333a1.06 1.06 0 0 1 .859-1.226l9.665-1.71" opacity="0.3"></path><path fill="#FFF" d="M12.582 0H39.28v7.557a2 2 0 0 0 2 2h7.399v38.129a2 2 0 0 1-2 2H12.582a2 2 0 0 1-2-2V2a2 2 0 0 1 2-2z"></path><ellipse cx="21.429" cy="11.893" fill="#24C6DC" rx="3.968" ry="3.964"></ellipse><path stroke="#514A9D" stroke-linecap="round" stroke-width="3.456" d="M18.827 24.7h10.72m-10.72 7.71H40.13m-21.303 7.928H40.13" opacity="0.7"></path></g><g transform="translate(125.505 199.958)"><path fill="#FFF" d="M1.886 0h48.092a1.53 1.53 0 0 1 1.497 1.215l7.81 37.077H8.066L.389 1.845A1.53 1.53 0 0 1 1.886 0z"></path><ellipse cx="28.744" cy="20.948" fill="#24C6DC" rx="3.593" ry="4.731" transform="rotate(-22 28.744 20.948)"></ellipse><path stroke="#FFF" stroke-linecap="round" stroke-width="3.4" d="M8.723 38.742h68.169"></path></g><path stroke="#CE9E23" stroke-width="2" d="M56.027 175c-.325 34.564 2.257 57.245 7.744 68.045 5.488 10.8 8.564 32.45 9.229 64.955m-8.973-133c-.325 34.564 2.257 57.245 7.744 68.045 5.488 10.8 8.564 32.45 9.229 64.955m-7.973-133c-.325 34.564 2.257 57.245 7.744 68.045 5.488 10.8 8.564 32.45 9.229 64.955m-36-67c4.66 12.015 7.553 25.009 8.677 38.98 1.125 13.973 1.533 23.312 1.222 28.02M52 260c1.62 6.172 2.753 12.564 3.401 19.177 1.36 13.874 1.852 23.148 1.477 27.823M82 175c.724 34.105 3.136 54.103 7.236 59.994 4.1 5.892 4.85-14.106 2.25-59.994" opacity="0.3"></path></g></svg>